<svg width="512" height="512" viewBox="0 0 512 512" fill="none" xmlns="http://www.w3.org/2000/svg">
  <path d="M211.1 126.7L303.4 161.5L236.8 241.5L144.5 206.8Z" fill="#A83A00" stroke="#000000" stroke-width="2.6" stroke-linejoin="round"/>
  <path d="M341.3 231.9L303.4 161.5L236.8 241.5L274.7 311.9Z" fill="#A83A00" stroke="#000000" stroke-width="2.6" stroke-linejoin="round"/>
  <path d="M144.5 206.8L236.8 241.5L274.7 311.9L182.3 277.2Z" fill="#A83A00" stroke="#000000" stroke-width="2.6" stroke-linejoin="round"/>
  <path d="M315.5 117.1L303.4 161.5L211.1 126.7L223.2 82.4Z" fill="#A83A00" stroke="#000000" stroke-width="2.6" stroke-linejoin="round"/>
  <path d="M315.5 117.1L303.4 161.5L341.3 231.9L353.4 187.5Z" fill="#A83A00" stroke="#000000" stroke-width="2.6" stroke-linejoin="round"/>
  <path d="M144.5 206.8L211.1 126.7L223.2 82.4L156.6 162.4Z" fill="#A83A00" stroke="#000000" stroke-width="2.6" stroke-linejoin="round"/>
  <path d="M182.3 277.2L274.7 311.9L208.1 392.0L115.7 357.3Z" fill="#9A3300" stroke="#000000" stroke-width="2.6" stroke-linejoin="round"/>
  <path d="M312.5 382.3L274.7 311.9L208.1 392.0L245.9 462.4Z" fill="#9A3300" stroke="#000000" stroke-width="2.6" stroke-linejoin="round"/>
  <path d="M341.3 231.9L274.7 311.9L286.8 267.6L353.4 187.5Z" fill="#A83A00" stroke="#000000" stroke-width="2.6" stroke-linejoin="round"/>
  <path d="M156.6 162.4L194.4 232.9L182.3 277.2L144.5 206.8Z" fill="#A83A00" stroke="#000000" stroke-width="2.6" stroke-linejoin="round"/>
  <path d="M115.7 357.3L208.1 392.0L245.9 462.4L153.6 427.7Z" fill="#C94800" stroke="#000000" stroke-width="2.6" stroke-linejoin="round"/>
  <path d="M286.8 267.6L194.4 232.9L182.3 277.2L274.7 311.9Z" fill="#D45100" stroke="#000000" stroke-width="2.6" stroke-linejoin="round"/>
  <path d="M286.8 267.6L274.7 311.9L182.3 277.2L194.4 232.9Z" fill="#C94800" stroke="#000000" stroke-width="2.6" stroke-linejoin="round"/>
  <path d="M315.5 117.1L223.2 82.4L261.0 152.8L353.4 187.5Z" fill="#D45100" stroke="#000000" stroke-width="2.6" stroke-linejoin="round"/>
  <path d="M286.8 267.6L274.7 311.9L312.5 382.3L324.6 338.0Z" fill="#C94800" stroke="#000000" stroke-width="2.6" stroke-linejoin="round"/>
  <path d="M115.7 357.3L182.3 277.2L194.4 232.9L127.8 312.9Z" fill="#C94800" stroke="#000000" stroke-width="2.6" stroke-linejoin="round"/>
  <path d="M261.0 152.8L194.4 232.9L156.6 162.4L223.2 82.4Z" fill="#D45100" stroke="#000000" stroke-width="2.6" stroke-linejoin="round"/>
  <path d="M353.4 187.5L261.0 152.8L194.4 232.9L286.8 267.6Z" fill="#D45100" stroke="#000000" stroke-width="2.6" stroke-linejoin="round"/>
  <path d="M194.4 232.9L261.0 152.8L353.4 187.5L286.8 267.6Z" fill="#C24300" stroke="#000000" stroke-width="2.6" stroke-linejoin="round"/>
  <path d="M312.5 382.3L245.9 462.4L258.0 418.0L324.6 338.0Z" fill="#C94800" stroke="#000000" stroke-width="2.6" stroke-linejoin="round"/>
  <path d="M127.8 312.9L165.7 383.3L153.6 427.7L115.7 357.3Z" fill="#C94800" stroke="#000000" stroke-width="2.6" stroke-linejoin="round"/>
  <path d="M324.6 338.0L391.2 257.9L353.4 187.5L286.8 267.6Z" fill="#C24300" stroke="#000000" stroke-width="2.6" stroke-linejoin="round"/>
  <path d="M245.9 462.4L258.0 418.0L165.7 383.3L153.6 427.7Z" fill="#C94800" stroke="#000000" stroke-width="2.6" stroke-linejoin="round"/>
  <path d="M324.6 338.0L286.8 267.6L194.4 232.9L232.3 303.3Z" fill="#C94800" stroke="#000000" stroke-width="2.6" stroke-linejoin="round"/>
  <path d="M286.8 267.6L324.6 338.0L232.3 303.3L194.4 232.9Z" fill="#C24300" stroke="#000000" stroke-width="2.6" stroke-linejoin="round"/>
  <path d="M273.2 108.4L365.5 143.2L353.4 187.5L261.0 152.8Z" fill="#C24300" stroke="#000000" stroke-width="2.6" stroke-linejoin="round"/>
  <path d="M194.4 232.9L232.3 303.3L165.7 383.3L127.8 312.9Z" fill="#FF6A00" stroke="#000000" stroke-width="2.6" stroke-linejoin="round"/>
  <path d="M365.5 143.2L353.4 187.5L391.2 257.9L403.3 213.6Z" fill="#FF6412" stroke="#000000" stroke-width="2.6" stroke-linejoin="round"/>
  <path d="M261.0 152.8L273.2 108.4L206.6 188.5L194.4 232.9Z" fill="#FF6412" stroke="#000000" stroke-width="2.6" stroke-linejoin="round"/>
  <path d="M232.3 303.3L165.7 383.3L258.0 418.0L324.6 338.0Z" fill="#FF6A00" stroke="#000000" stroke-width="2.6" stroke-linejoin="round"/>
  <path d="M391.2 257.9L324.6 338.0L336.7 293.6L403.3 213.6Z" fill="#FF6412" stroke="#000000" stroke-width="2.6" stroke-linejoin="round"/>
  <path d="M206.6 188.5L244.4 258.9L232.3 303.3L194.4 232.9Z" fill="#FF6412" stroke="#000000" stroke-width="2.6" stroke-linejoin="round"/>
  <path d="M336.7 293.6L244.4 258.9L232.3 303.3L324.6 338.0Z" fill="#FF6412" stroke="#000000" stroke-width="2.6" stroke-linejoin="round"/>
  <path d="M365.5 143.2L273.2 108.4L311.0 178.9L403.3 213.6Z" fill="#FF6412" stroke="#000000" stroke-width="2.6" stroke-linejoin="round"/>
  <path d="M273.2 108.4L311.0 178.9L244.4 258.9L206.6 188.5Z" fill="#FF6412" stroke="#000000" stroke-width="2.6" stroke-linejoin="round"/>
  <path d="M311.0 178.9L244.4 258.9L336.7 293.6L403.3 213.6Z" fill="#FF6412" stroke="#000000" stroke-width="2.6" stroke-linejoin="round"/>
</svg>
